<?xml version="1.0" encoding="utf-8"?>
<!-- Generator: Adobe Illustrator 26.0.2, SVG Export Plug-In . SVG Version: 6.00 Build 0)  -->
<svg version="1.1" id="Layer_1" xmlns="http://www.w3.org/2000/svg" xmlns:xlink="http://www.w3.org/1999/xlink" x="0px" y="0px"
	 viewBox="0 0 200 100" style="enable-background:new 0 0 200 100;" xml:space="preserve">
<style type="text/css">
	.st0{fill:#E0F5F2;}
	.st1{fill:none;}
	.st2{fill:#00AECE;}
	.st3{fill:#E69CDB;}
	.st4{fill:#7661EB;}
</style>
<g>
	<g>
		<path class="st0" d="M62.21,93.72h15V35.96h-15V93.72z M69.94,6.26c-5.91,0-10.7,4.79-10.7,10.7c0,5.91,4.79,10.7,10.7,10.7
			s10.7-4.79,10.7-10.7C80.63,11.05,75.84,6.26,69.94,6.26z"/>
	</g>
</g>
<path class="st1" d="M38.74,34.62"/>
<path class="st1" d="M56.45,34.73"/>
<polygon class="st2" points="35.71,62.81 55.73,35.96 38.01,35.96 20.05,61.56 20.05,36.12 4.08,36.12 4.08,93.72 20.05,93.72 
	20.05,66.37 38.56,93.72 58.47,93.72 "/>
<g>
	<g>
		<path class="st3" d="M108.75,27.55c5.91,0,10.7-4.79,10.7-10.7c0-5.91-4.79-10.7-10.7-10.7s-10.7,4.79-10.7,10.7
			C98.06,22.76,102.85,27.55,108.75,27.55z M80.95,93.72h14.96v-31.4H80.95V93.72z M80.94,62.31c4.99,0,9.98,0,14.96,0
			c0-17.12,25.68-17.12,25.68,0c0,0,0,0,0.01,0v31.41h14.96V62.31c0,0,0,0,0,0C136.55,25.23,80.94,25.23,80.94,62.31z"/>
	</g>
</g>
<g>
	<g>
		<path class="st4" d="M168.12,27.67c5.91,0,10.7-4.79,10.7-10.7s-4.79-10.7-10.7-10.7s-10.7,4.79-10.7,10.7
			S162.21,27.67,168.12,27.67z M140.32,93.72h14.96v-31.4h-14.96V93.72z M140.31,62.31c4.99,0,9.98,0,14.96,0
			c0-17.12,25.68-17.12,25.68,0c0,0,0,0,0.01,0v31.41h14.96V62.31c0,0,0,0,0,0C195.92,25.23,140.31,25.23,140.31,62.31z"/>
	</g>
</g>
</svg>
